<?xml version="1.0" encoding="UTF-8" standalone="no"?>
<svg width="266px" height="266px" viewBox="0 0 266 266" version="1.1" xmlns="http://www.w3.org/2000/svg" xmlns:xlink="http://www.w3.org/1999/xlink">
    <!-- Generator: Sketch 39.1 (31720) - http://www.bohemiancoding.com/sketch -->
    <title>Group</title>
    <desc>Created with Sketch.</desc>
    <defs>
        <polygon id="path-1" points="14.3501539 0.0775316088 0.638295183 0.0775316088 0.638295183 8.53652242 14.3501539 8.53652242 14.3501539 0.0775316088"></polygon>
        <polygon id="path-3" points="0 0.467918154 0 4.07641332 12.1309985 4.07641332 12.1309985 0.467918154 1.79900803e-20 0.467918154"></polygon>
        <polygon id="path-5" points="0.416239375 8.68888719 14.1282068 8.68888719 14.1282068 0.213611468 0.416239375 0.213611468 0.416239375 8.68888719"></polygon>
    </defs>
    <g id="Page-1" stroke="none" stroke-width="1" fill="none" fill-rule="evenodd">
        <g id="Group">
            <circle id="Oval" fill="#F4F4F4" cx="133" cy="133" r="133"></circle>
            <g id="LOGO" transform="translate(58.000000, 162.000000)">
                <path d="M6.96875,4.84090909 L2.97159091,4.84090909 L2.97159091,1.08238636 L14.7045455,1.08238636 L14.7045455,4.84090909 L10.7272727,4.84090909 L10.7272727,26 L6.96875,26 L6.96875,4.84090909 Z M23.2159091,1.08238636 C25.3106165,1.08238636 26.8484799,1.65908514 27.8295455,2.8125 C28.6912922,3.8200808 29.1221591,5.22536977 29.1221591,7.02840909 L29.1221591,10.6477273 C29.1221591,12.4109937 28.4526582,13.902456 27.1136364,15.1221591 L29.8977273,26 L25.8409091,26 L23.5539773,16.59375 C23.4479161,16.6070076 23.3352279,16.6136364 23.2159091,16.6136364 L21.0482955,16.6136364 L21.0482955,26 L17.2897727,26 L17.2897727,1.08238636 L23.2159091,1.08238636 Z M25.4630682,7.08806818 C25.4630682,5.6429852 24.7471662,4.92045455 23.3153409,4.92045455 L21.0482955,4.92045455 L21.0482955,12.8948864 L23.3153409,12.8948864 C23.9119348,12.8948864 24.419032,12.6827673 24.8366477,12.2585227 C25.2542635,11.8342782 25.4630682,11.3238666 25.4630682,10.7272727 L25.4630682,7.08806818 Z M37.3153409,20.2727273 L36.4005682,26 L32.4829545,26 L36.71875,1.08238636 L41.8892045,1.08238636 L46.0653409,26 L42.1278409,26 L41.2329545,20.2727273 L37.3153409,20.2727273 Z M39.2840909,6.78977273 L37.8920455,16.6136364 L40.6761364,16.6136364 L39.2840909,6.78977273 Z M60.4630682,20.0340909 C60.4630682,21.6780385 59.8863694,23.0833275 58.7329545,24.25 C57.5795397,25.4166725 56.1875082,26 54.5568182,26 L48.6505682,26 L48.6505682,1.0625 L54.5568182,1.0625 C56.2007658,1.0625 57.5961117,1.6458275 58.7428977,2.8125 C59.8896838,3.9791725 60.4630682,5.37783276 60.4630682,7.00852273 L60.4630682,20.0340909 Z M52.4090909,22.28125 L54.6761364,22.28125 C55.2727303,22.28125 55.7765131,22.0658165 56.1875,21.6349432 C56.5984869,21.2040698 56.8039773,20.6969726 56.8039773,20.1136364 L56.8039773,7.06818182 C56.8039773,6.47158793 56.5951725,5.96117636 56.1775568,5.53693182 C55.7599411,5.11268727 55.2594726,4.90056818 54.6761364,4.90056818 L52.4090909,4.90056818 L52.4090909,22.28125 Z M63.0482955,26 L63.0482955,1.0625 L73.7471591,1.0625 L73.7471591,4.82102273 L66.8068182,4.82102273 L66.8068182,11.6420455 L71.8778409,11.6420455 L71.8778409,15.4204545 L66.8068182,15.4204545 L66.8068182,22.2414773 L73.7471591,22.2414773 L73.7471591,26 L63.0482955,26 Z M91.7840909,1.08238636 L95.7215909,1.08238636 L91.8238636,26 L88.2244318,26 L86.0965909,12.3977273 L84.1079545,26 L80.5085227,26 L76.3323864,1.08238636 L80.2698864,1.08238636 L82.2386364,14.4261364 L84.0482955,1.08238636 L87.9857955,1.08238636 L89.9545455,14.4261364 L91.7840909,1.08238636 Z M102.065341,26 L98.3068182,26 L98.3068182,1.08238636 L102.065341,1.08238636 L102.065341,26 Z M108.886364,1.0625 L113.857955,17.8068182 L113.857955,1.0625 L117.616477,1.0625 L117.616477,26 L113.579545,26 L108.409091,10.03125 L108.409091,26 L104.650568,26 L104.650568,1.0625 L108.886364,1.0625 Z M132.014205,20.0340909 C132.014205,21.6780385 131.437506,23.0833275 130.284091,24.25 C129.130676,25.4166725 127.738645,26 126.107955,26 L120.201705,26 L120.201705,1.0625 L126.107955,1.0625 C127.751902,1.0625 129.147248,1.6458275 130.294034,2.8125 C131.44082,3.9791725 132.014205,5.37783276 132.014205,7.00852273 L132.014205,20.0340909 Z M123.960227,22.28125 L126.227273,22.28125 C126.823867,22.28125 127.327649,22.0658165 127.738636,21.6349432 C128.149623,21.2040698 128.355114,20.6969726 128.355114,20.1136364 L128.355114,7.06818182 C128.355114,6.47158793 128.146309,5.96117636 127.728693,5.53693182 C127.311077,5.11268727 126.810609,4.90056818 126.227273,4.90056818 L123.960227,4.90056818 L123.960227,22.28125 Z M147.028409,19.7954545 C147.054924,21.5322057 146.604171,23.0170393 145.676136,24.25 C145.066285,25.0852314 144.204551,25.6751877 143.090909,26.0198864 C142.494315,26.2054934 141.798299,26.2982955 141.002841,26.2982955 C139.531243,26.2982955 138.311558,25.9337158 137.34375,25.2045455 C136.535034,24.6079516 135.895362,23.7959332 135.424716,22.7684659 C134.95407,21.7409987 134.678978,20.5644006 134.599432,19.2386364 L138.178977,18.9801136 C138.338069,20.4251966 138.722535,21.4725346 139.332386,22.1221591 C139.783146,22.6126918 140.300186,22.8446971 140.883523,22.8181818 C141.705497,22.7916665 142.36174,22.3873145 142.852273,21.6051136 C143.104168,21.220642 143.230114,20.6704581 143.230114,19.9545455 C143.230114,18.9204494 142.759474,17.8929975 141.818182,16.8721591 C141.075754,16.1695041 139.962129,15.1155373 138.477273,13.7102273 C137.231054,12.5037818 136.349434,11.4233002 135.832386,10.46875 C135.275565,9.39488099 134.997159,8.22822599 134.997159,6.96875 C134.997159,4.70169321 135.759462,2.98485432 137.284091,1.81818182 C138.225383,1.11552679 139.392038,0.764204545 140.784091,0.764204545 C142.123113,0.764204545 143.269882,1.06249702 144.224432,1.65909091 C144.96686,2.12310838 145.566759,2.7727231 146.024148,3.60795455 C146.481536,4.44318599 146.756628,5.40435062 146.849432,6.49147727 L143.25,7.14772727 C143.143939,6.12688884 142.852275,5.33144224 142.375,4.76136364 C142.030301,4.35037673 141.533147,4.14488636 140.883523,4.14488636 C140.194125,4.14488636 139.670456,4.44980756 139.3125,5.05965909 C139.020832,5.55019185 138.875,6.16003423 138.875,6.88920455 C138.875,8.02936176 139.365525,9.18938804 140.346591,10.3693182 C140.717805,10.820078 141.274617,11.3503757 142.017045,11.9602273 C142.89205,12.6893976 143.468749,13.1998091 143.747159,13.4914773 C144.675194,14.4195122 145.391096,15.3342758 145.894886,16.2357955 C146.133524,16.66004 146.325757,17.0511346 146.471591,17.4090909 C146.829547,18.2973529 147.015151,19.0927995 147.028409,19.7954545 L147.028409,19.7954545 Z" id="TRADEWINDS" fill="#4A4A4A"></path>
                <path d="M3.03085067,45 L3.03085067,34.3125 L5.44278249,34.3125 C6.07914931,34.3125 6.6530072,34.480112 7.1643734,34.8153409 C7.60187559,35.0994332 7.91437246,35.5397697 8.1018734,36.1363636 C8.20414664,36.454547 8.25528249,36.8323842 8.25528249,37.2698864 C8.25528249,37.985799 8.06494348,38.5596569 7.68425976,38.9914773 C7.52516806,39.1732964 7.33766993,39.3124995 7.12175976,39.4090909 C7.4797161,39.5454552 7.78369033,39.8153389 8.03369158,40.21875 C8.19846513,40.4914786 8.320623,40.8437478 8.40016885,41.2755682 C8.43994178,41.4971602 8.45982794,41.7443168 8.45982794,42.0170455 C8.45982794,42.6931852 8.33198831,43.2670431 8.07630522,43.7386364 C7.87744059,44.1079564 7.5961934,44.403408 7.23255522,44.625 C6.82346226,44.8750013 6.41721632,45 6.01380522,45 L3.03085067,45 Z M4.76948703,43.40625 L5.44278249,43.40625 C5.98823976,43.40625 6.36607689,43.1250028 6.57630522,42.5625 C6.65016922,42.3693172 6.68710067,42.1477285 6.68710067,41.8977273 C6.68710067,41.3011334 6.57346544,40.8664786 6.34619158,40.59375 C6.1416451,40.3437488 5.84051175,40.21875 5.44278249,40.21875 L4.76948703,40.21875 L4.76948703,43.40625 Z M4.76948703,38.6761364 L5.44278249,38.6761364 C5.94278499,38.6761364 6.27800891,38.4318206 6.44846431,37.9431818 C6.51096462,37.7613627 6.54221431,37.5369332 6.54221431,37.2698864 C6.54221431,36.8267023 6.43426084,36.4914784 6.21835067,36.2642045 C6.01948604,36.0539762 5.7609659,35.9488636 5.44278249,35.9488636 L4.76948703,35.9488636 L4.76948703,38.6761364 Z M14.1090327,45 L14.1090327,34.3125 L18.69426,34.3125 L18.69426,35.9232955 L15.7198282,35.9232955 L15.7198282,38.8465909 L17.8931236,38.8465909 L17.8931236,40.4659091 L15.7198282,40.4659091 L15.7198282,43.3892045 L18.69426,43.3892045 L18.69426,45 L14.1090327,45 Z M29.1247148,42.4431818 C29.1247148,43.1477308 28.8775581,43.7499975 28.3832375,44.25 C27.8889168,44.7500025 27.2923319,45 26.5934648,45 L24.0622148,45 L24.0622148,34.3125 L26.5934648,34.3125 C27.2980137,34.3125 27.8960191,34.5624975 28.3874989,35.0625 C28.8789786,35.5625025 29.1247148,36.1619283 29.1247148,36.8607955 L29.1247148,42.4431818 Z M25.6730102,43.40625 L26.6446011,43.40625 C26.9002842,43.40625 27.1161912,43.3139214 27.2923284,43.1292614 C27.4684656,42.9446013 27.5565329,42.727274 27.5565329,42.4772727 L27.5565329,36.8863636 C27.5565329,36.6306805 27.4670452,36.4119327 27.288067,36.2301136 C27.1090889,36.0482945 26.8946024,35.9573864 26.6446011,35.9573864 L25.6730102,35.9573864 L25.6730102,43.40625 Z M46.1418743,39.9715909 C45.8861912,41.1079602 45.5396038,42.0681779 45.1021016,42.8522727 C45.5168764,43.2329564 45.8776682,43.4232955 46.1844879,43.4232955 L46.1844879,44.9147727 C45.5594848,44.9147727 44.9146049,44.6306847 44.2498289,44.0625 C43.613462,44.7329579 42.9316507,45.0681818 42.2043743,45.0681818 C41.363461,45.0681818 40.721422,44.7215944 40.2782379,44.0284091 C39.9998275,43.5909069 39.8606243,43.0909119 39.8606243,42.5284091 C39.8606243,41.97727 39.9941457,41.4034121 40.2611925,40.8068182 C40.3066473,40.7102268 40.4572139,40.4488658 40.712897,40.0227273 C40.8549432,39.7954534 40.9969872,39.5767056 41.1390334,39.3664773 L40.806647,38.6079545 C40.6475553,38.2556801 40.5396019,38.0056826 40.4827834,37.8579545 C40.3691465,37.5681804 40.2896018,37.3068193 40.244147,37.0738636 C40.1930104,36.8181805 40.1674425,36.568183 40.1674425,36.3238636 C40.1674425,35.8465885 40.2725551,35.4090929 40.4827834,35.0113636 C40.6986936,34.590907 41.0111904,34.2755692 41.4202834,34.0653409 C41.7441487,33.8892037 42.1020996,33.8011364 42.494147,33.8011364 C42.9316492,33.8011364 43.3322134,33.9105103 43.6958516,34.1292614 C44.0594898,34.3480125 44.3378961,34.6505663 44.5310789,35.0369318 C44.6844887,35.3494334 44.7611925,35.6874982 44.7611925,36.0511364 C44.7611925,36.693185 44.5367629,37.3039744 44.087897,37.8835227 L43.7384652,38.3352273 C43.4202818,38.7500021 43.1276711,39.1392027 42.8606243,39.5028409 C43.2185806,40.2471628 43.6219857,40.9431786 44.0708516,41.5909091 C44.3378984,40.9829515 44.5424418,40.3352307 44.6844879,39.6477273 L46.1418743,39.9715909 Z M41.650397,36.3153409 C41.650397,36.6335243 41.8151681,37.1846552 42.1447152,37.96875 C42.2128974,37.8835223 42.2810785,37.7982959 42.3492607,37.7130682 L42.5623289,37.4318182 L42.9032379,36.9801136 C43.1532392,36.6505665 43.2782379,36.3437514 43.2782379,36.0596591 C43.2782379,35.8494308 43.2498291,35.6875006 43.1930107,35.5738636 C43.0509645,35.2159073 42.8180123,35.0369318 42.494147,35.0369318 C42.2157366,35.0369318 41.9969887,35.1874985 41.837897,35.4886364 C41.7128964,35.7272739 41.650397,36.0028393 41.650397,36.3153409 L41.650397,36.3153409 Z M42.2043743,43.5852273 C42.5282396,43.5852273 42.8719861,43.3806839 43.2356243,42.9715909 C42.7981221,42.4090881 42.3577856,41.721595 41.9146016,40.9090909 C41.8123283,41.0795463 41.7100566,41.2556809 41.6077834,41.4375 C41.437328,41.8295474 41.3521016,42.1931801 41.3521016,42.5284091 C41.3521016,42.8238651 41.4174418,43.06534 41.5481243,43.2528409 C41.7015342,43.4744329 41.920282,43.5852273 42.2043743,43.5852273 L42.2043743,43.5852273 Z M56.9203975,45 L56.9203975,34.3125 L59.3323293,34.3125 C59.9686961,34.3125 60.542554,34.480112 61.0539202,34.8153409 C61.4914224,35.0994332 61.8039193,35.5397697 61.9914202,36.1363636 C62.0936935,36.454547 62.1448293,36.8323842 62.1448293,37.2698864 C62.1448293,37.985799 61.9544903,38.5596569 61.5738066,38.9914773 C61.4147149,39.1732964 61.2272168,39.3124995 61.0113066,39.4090909 C61.3692629,39.5454552 61.6732372,39.8153389 61.9232384,40.21875 C62.088012,40.4914786 62.2101698,40.8437478 62.2897157,41.2755682 C62.3294886,41.4971602 62.3493748,41.7443168 62.3493748,42.0170455 C62.3493748,42.6931852 62.2215351,43.2670431 61.965852,43.7386364 C61.7669874,44.1079564 61.4857402,44.403408 61.122102,44.625 C60.7130091,44.8750013 60.3067632,45 59.903352,45 L56.9203975,45 Z M58.6590339,43.40625 L59.3323293,43.40625 C59.8777866,43.40625 60.2556237,43.1250028 60.465852,42.5625 C60.539716,42.3693172 60.5766475,42.1477285 60.5766475,41.8977273 C60.5766475,41.3011334 60.4630123,40.8664786 60.2357384,40.59375 C60.0311919,40.3437488 59.7300586,40.21875 59.3323293,40.21875 L58.6590339,40.21875 L58.6590339,43.40625 Z M58.6590339,38.6761364 L59.3323293,38.6761364 C59.8323318,38.6761364 60.1675557,38.4318206 60.3380111,37.9431818 C60.4005114,37.7613627 60.4317611,37.5369332 60.4317611,37.2698864 C60.4317611,36.8267023 60.3238077,36.4914784 60.1078975,36.2642045 C59.9090329,36.0539762 59.6505127,35.9488636 59.3323293,35.9488636 L58.6590339,35.9488636 L58.6590339,38.6761364 Z M70.546875,34.3210227 C71.4446068,34.3210227 72.1036911,34.5681793 72.5241477,35.0625 C72.8934678,35.4943203 73.078125,36.096587 73.078125,36.8693182 L73.078125,38.4204545 C73.078125,39.1761401 72.7911961,39.8153383 72.2173295,40.3380682 L73.4105114,45 L71.671875,45 L70.6917614,40.96875 C70.6463066,40.9744318 70.5980116,40.9772727 70.546875,40.9772727 L69.6178977,40.9772727 L69.6178977,45 L68.0071023,45 L68.0071023,34.3210227 L70.546875,34.3210227 Z M71.5099432,36.8948864 C71.5099432,36.2755651 71.2031281,35.9659091 70.5894886,35.9659091 L69.6178977,35.9659091 L69.6178977,39.3835227 L70.5894886,39.3835227 C70.8451717,39.3835227 71.0624991,39.2926145 71.2414773,39.1107955 C71.4204554,38.9289764 71.5099432,38.7102286 71.5099432,38.4545455 L71.5099432,36.8948864 Z M79.0511934,45 L79.0511934,34.3125 L83.6364207,34.3125 L83.6364207,35.9232955 L80.6619889,35.9232955 L80.6619889,38.8465909 L82.8352843,38.8465909 L82.8352843,40.4659091 L80.6619889,40.4659091 L80.6619889,43.3892045 L83.6364207,43.3892045 L83.6364207,45 L79.0511934,45 Z M91.0753982,42.5454545 L90.6833527,45 L89.0043755,45 L90.8197164,34.3210227 L93.0356255,34.3210227 L94.8253982,45 L93.1378982,45 L92.7543755,42.5454545 L91.0753982,42.5454545 Z M91.9191482,36.7670455 L91.3225573,40.9772727 L92.5157391,40.9772727 L91.9191482,36.7670455 Z M102.05983,41.625 L102.05983,45 L100.440512,45 L100.440512,34.3125 L102.05983,34.3125 L102.05983,38.1221591 L104.020058,34.3125 L105.741648,34.3125 L103.534262,38.6846591 L106.116648,45 L104.224603,45 L102.537103,40.6704545 L102.05983,41.625 Z M113.299944,45 L111.689149,45 L111.689149,34.3125 L116.274376,34.3125 L116.274376,35.9232955 L113.299944,35.9232955 L113.299944,38.8465909 L115.47324,38.8465909 L115.47324,40.4659091 L113.299944,40.4659091 L113.299944,45 Z M122.366763,42.5454545 L121.974717,45 L120.29574,45 L122.111081,34.3210227 L124.32699,34.3210227 L126.116763,45 L124.429263,45 L124.04574,42.5454545 L122.366763,42.5454545 Z M123.210513,36.7670455 L122.613922,40.9772727 L123.807103,40.9772727 L123.210513,36.7670455 Z M136.572785,42.3409091 C136.584149,43.085231 136.390969,43.7215883 135.99324,44.25 C135.731875,44.6079563 135.362561,44.8607947 134.885285,45.0085227 C134.629602,45.0880686 134.33131,45.1278409 133.990399,45.1278409 C133.359714,45.1278409 132.836992,44.9715925 132.422217,44.6590909 C132.075625,44.4034078 131.80148,44.0553999 131.599774,43.6150568 C131.398069,43.1747137 131.280172,42.6704574 131.246081,42.1022727 L132.780172,41.9914773 C132.848354,42.6107986 133.013125,43.0596577 133.27449,43.3380682 C133.467673,43.5482965 133.689261,43.6477273 133.939263,43.6363636 C134.291537,43.6249999 134.572784,43.4517062 134.783013,43.1164773 C134.890968,42.9517037 134.944945,42.7159106 134.944945,42.4090909 C134.944945,41.9659069 134.743242,41.5255704 134.339831,41.0880682 C134.021648,40.7869303 133.54438,40.3352303 132.908013,39.7329545 C132.373919,39.2159065 131.996082,38.752843 131.77449,38.34375 C131.535852,37.8835204 131.416535,37.3835254 131.416535,36.84375 C131.416535,35.8721542 131.743237,35.1363661 132.396649,34.6363636 C132.80006,34.3352258 133.300055,34.1846591 133.896649,34.1846591 C134.470516,34.1846591 134.961988,34.3124987 135.371081,34.5681818 C135.689264,34.7670464 135.946364,35.0454528 136.142388,35.4034091 C136.338411,35.7613654 136.456308,36.1732931 136.496081,36.6392045 L134.953467,36.9204545 C134.908013,36.4829524 134.783014,36.1420467 134.578467,35.8977273 C134.430739,35.72159 134.217673,35.6335227 133.939263,35.6335227 C133.643807,35.6335227 133.419377,35.7642032 133.265967,36.0255682 C133.140967,36.2357965 133.078467,36.4971575 133.078467,36.8096591 C133.078467,37.2982979 133.288692,37.795452 133.709149,38.3011364 C133.868241,38.4943191 134.106875,38.7215896 134.425058,38.9829545 C134.80006,39.2954561 135.047217,39.5142039 135.166535,39.6392045 C135.564265,40.0369338 135.87108,40.4289753 136.08699,40.8153409 C136.189263,40.99716 136.271649,41.164772 136.334149,41.3181818 C136.487559,41.6988655 136.567104,42.0397712 136.572785,42.3409091 L136.572785,42.3409091 Z M143.653808,35.9318182 L141.94074,35.9318182 L141.94074,34.3210227 L146.969149,34.3210227 L146.969149,35.9318182 L145.264604,35.9318182 L145.264604,45 L143.653808,45 L143.653808,35.9318182 Z" id="BED-&amp;-BREAKFAST" fill="#4A4A4A"></path>
                <g id="BAR" transform="translate(0.000000, 50.000000)">
                    <path d="M41.9594469,9.40658927 C42.0025885,9.40658927 41.9753761,9.34576706 41.942854,9.34576706 C41.8990487,9.34576706 41.9262611,9.40658927 41.9594469,9.40658927" id="Fill-1" fill="#4A4A4A"></path>
                    <path d="M11.4414159,8.79175024 C21.5046903,8.9568391 52.2712832,8.94280321 62.3352212,8.98290576 C76.5706195,9.03971772 111.506681,9.08383053 125.74208,9.11323907 C129.930133,9.12326471 134.130796,9.04038609 138.308894,9.00162029 C138.892965,8.99627328 138.52792,8.19890079 138.094513,8.20291104 C128.101593,8.2958153 97.3807965,8.13674183 87.3819027,8.14208883 C73.1471681,8.1514461 38.2124336,8.12738456 23.9776991,8.17417088 C19.7511504,8.18887515 15.5239381,8.18687002 11.2973894,8.25638112 C10.9031416,8.2623965 11.1526991,8.78707161 11.4414159,8.79175024" id="Fill-3" fill="#4A4A4A"></path>
                    <path d="M138.396704,8.68928821 C138.959535,5.46972132 143.387854,7.06045605 145.326571,7.88189008 C146.671261,8.45201476 148.424801,9.40311371 149.714403,8.2367977 C150.007765,7.97212083 149.427677,7.53366622 149.174137,7.58045253 C146.616173,8.05834133 144.285199,6.28313484 141.757765,5.92689046 C140.057987,5.68828025 137.64604,6.25439467 137.807987,8.43797886 C137.82458,8.65319591 138.335642,9.03082832 138.396704,8.68928821" id="Fill-5" fill="#4A4A4A"></path>
                    <path d="M137.739491,8.23693138 C138.118473,10.3195908 140.400996,11.3148026 142.319137,11.191153 C143.490597,11.1169633 144.611615,10.6771719 145.666925,10.1899259 C147.034181,9.55964736 148.42135,8.94942013 149.768031,8.28705957 C150.175553,8.08721517 149.577544,7.61066313 149.326659,7.62469902 C146.097677,7.8058289 140.49458,13.1421424 138.358075,8.20618609 C138.237279,7.92881007 137.661173,7.80716565 137.739491,8.23693138" id="Fill-7" fill="#4A4A4A"></path>
                    <g id="Group-11" transform="translate(124.778761, 0.591179)">
                        <mask id="mask-2" fill="white">
                            <use xlink:href="#path-1"></use>
                        </mask>
                        <g id="Clip-10"></g>
                        <path d="M13.0365265,3.30912927 C12.9256858,3.69077193 12.1836504,4.20341627 11.8962611,4.47009827 C11.3639602,4.96803834 10.801792,5.42921774 10.2104204,5.85296809 C9.64426991,6.26134578 9.03165929,6.59820726 8.42568584,6.94576274 C8.44294248,6.90833369 8.45820796,6.87023626 8.47280973,6.83013371 C9.00577434,6.27137142 9.54006637,5.71194076 10.0922788,5.16988788 C10.5794469,4.69266746 11.0759071,4.22413593 11.5856416,3.77164542 C11.837854,3.54640272 13.3750221,2.15283889 13.0365265,3.30912927 M14.1794469,2.44625593 C13.5004646,1.28461855 12.2400664,1.79392102 11.4376327,2.47967473 C10.4752434,3.30311388 9.53210177,4.21878892 8.65599558,5.18659728 C8.56772124,4.09781287 8.14493363,2.97026267 7.64449115,2.24039614 C6.21285398,0.157068345 2.58696903,-1.05737073 1.02922566,1.60076037 C-0.15949115,3.62928134 1.52170354,6.38700046 3.93033186,5.91780055 C4.74471239,5.75939545 5.78210177,4.90053237 5.04537611,4.04567955 C4.47988938,3.38666088 3.44382743,3.59853605 3.1345354,4.36315812 C3.05754425,4.55297689 3.19294248,4.75950505 3.37612832,4.8804811 C3.18165929,4.91256314 2.99847345,4.94063493 2.92413717,4.9332828 C1.81639381,4.81297513 1.48188053,3.64398561 1.79050885,2.72897895 C2.28165929,1.27459291 3.93298673,0.753928058 5.2975885,1.25721514 C7.11219027,1.92559108 8.33077434,4.67796319 7.54957965,6.49260386 C7.30002212,6.80674055 7.05577434,7.12355074 6.82679204,7.44570794 C6.72391593,7.52791818 6.61838496,7.61012842 6.4975885,7.67830277 C6.18962389,7.85542239 6.62435841,8.31259154 6.8765708,8.2497642 C6.91373894,8.23973856 6.94493363,8.22236078 6.98143805,8.21233514 C7.08099558,8.40816929 7.32789823,8.57392653 7.52502212,8.52914534 C9.3084292,8.12009927 10.977677,6.83013371 12.3356416,5.64309804 C13.1360841,4.94397681 14.9042257,3.68408817 14.1794469,2.44625593" id="Fill-9" fill="#4A4A4A" mask="url(#mask-2)"></path>
                    </g>
                    <path d="M136.708872,12.7282172 C136.199801,12.2757267 135.702013,11.8058584 135.216173,11.3299747 C134.663296,10.7885902 134.129668,10.2291595 133.59604,9.66972888 C133.582102,9.62962632 133.566173,9.59219727 133.54958,9.55343146 C134.154226,9.90098695 134.766836,10.2385168 135.334978,10.6468945 C135.924358,11.0706448 136.48719,11.5338294 137.020155,12.0290959 C137.307544,12.2964463 138.048916,12.8090907 138.161084,13.1900649 C138.497588,14.3476921 136.962412,12.9534599 136.708872,12.7282172 M137.460199,10.8560962 C136.101571,9.66972888 134.432323,8.37976332 132.648252,7.97071724 C132.451128,7.92526768 132.205553,8.09169329 132.105332,8.28819581 C132.069491,8.2775018 132.036969,8.2607924 131.999137,8.25076676 C131.748252,8.18660267 131.31219,8.64510856 131.621482,8.82089144 C131.741615,8.89040253 131.847146,8.9719444 131.950686,9.05482301 C132.180332,9.37564346 132.423252,9.69312203 132.674137,10.0072587 C133.455332,11.8225678 132.236748,14.5742715 130.421482,15.2419791 C129.056217,15.7466029 127.405553,15.225938 126.913075,13.7702153 C126.604447,12.8545402 126.93896,11.6868875 128.048031,11.5665798 C128.12104,11.5578909 128.306217,11.5872994 128.500686,11.6200499 C128.315509,11.7410259 128.181438,11.9468857 128.259093,12.1353677 C128.567721,12.9019949 129.602456,13.1125333 130.167942,12.4548514 C130.906659,11.5993302 129.867279,10.7404671 129.054889,10.5813937 C126.646261,10.1121937 124.965066,12.8712496 126.152456,14.8997706 C127.709535,17.5585701 131.336748,16.3434626 132.768385,14.2594664 C133.268827,13.5302683 133.691615,12.4027181 133.780553,11.3132653 C134.654668,12.281742 135.599137,13.1960803 136.562854,14.0208562 C137.362633,14.7066099 138.625022,15.215244 139.303341,14.0529383 C140.028119,12.8157744 138.260642,11.5552174 137.460199,10.8560962" id="Fill-12" fill="#4A4A4A"></path>
                    <path d="M12.0574779,8.79435691 C12.2273894,6.77385645 9.96676991,5.93170277 8.3200885,6.03062241 C7.0729646,6.10481214 5.80393805,6.46573514 4.63181416,6.89015386 C3.19353982,7.41349222 2.08247788,8.08186816 0.498185841,7.72027678 C0.0687610619,7.62202552 -0.00756637168,8.08654679 0.296415929,8.32047837 C1.51699115,9.25754144 2.91743363,8.89327655 4.22163717,8.30711085 C6.00106195,7.50706486 10.9530531,5.41504817 11.4687611,8.67939625 C11.5092478,8.9307056 12.0269469,9.15260641 12.0574779,8.79435691" id="Fill-14" fill="#4A4A4A"></path>
                    <g id="Group-18" transform="translate(0.000000, 7.274938)">
                        <mask id="mask-4" fill="white">
                            <use xlink:href="#path-3"></use>
                        </mask>
                        <g id="Clip-17"></g>
                        <path d="M11.4767257,0.980306988 C9.07539823,6.04860172 3.69,0.699589094 0.264557522,0.468999395 C-0.162876106,0.44025923 -0.00491150442,0.99300613 0.263230088,1.10997192 C2.53247788,2.09582643 4.90061947,3.63977484 7.3729646,4.0160705 C9.32030973,4.31216104 11.7481858,3.53417144 12.1271681,1.33721974 C12.1809292,1.0217463 11.6539381,0.606684839 11.4767257,0.980306988" id="Fill-16" fill="#4A4A4A" mask="url(#mask-4)"></path>
                    </g>
                    <path d="M13.5184513,4.54061193 C14.025531,4.99644432 14.5206637,5.46564423 15.0058407,5.94553815 C15.5567257,6.48892779 16.0876991,7.05103195 16.6186726,7.61179936 C16.6332743,7.65123355 16.6485398,7.6913361 16.6651327,7.72943353 C16.0611504,7.37853616 15.4498673,7.03766443 14.8837168,6.62728161 C14.2956637,6.20085776 13.734823,5.73767324 13.205177,5.23906479 C12.919115,4.97104604 12.1784071,4.45372306 12.0688938,4.07274878 C11.7363717,2.91512165 13.2669027,4.31470086 13.5184513,4.54061193 M12.759823,6.40939105 C14.1138053,7.60177373 15.7777434,8.89842304 17.5591593,9.31482125 C17.7562832,9.36093919 18.0031858,9.19651871 18.1034071,8.99934781 C18.1412389,9.01137858 18.1711062,9.02808798 18.2096018,9.03811362 C18.4618142,9.10227771 18.8972124,8.64711369 18.5912389,8.46932569 C18.4697788,8.39914622 18.3655752,8.31693598 18.2620354,8.23405736 C18.0337168,7.91190016 17.7914602,7.59308484 17.5425664,7.27894815 C16.7680088,5.45962885 17.9978761,2.71394049 19.8164602,2.05224832 C21.1830531,1.55430824 22.8310619,2.08165686 23.3182301,3.53938478 C23.6235398,4.45572819 23.2837168,5.62338095 22.174646,5.73834161 C22.1003097,5.74569375 21.9177876,5.71695358 21.7226549,5.68219803 C21.9078319,5.56255874 22.0432301,5.3580357 21.9662389,5.16754856 C21.6609292,4.39958461 20.625531,4.18637268 20.0567257,4.8413811 C19.3173451,5.69356042 20.3514159,6.55643376 21.164469,6.71884911 C23.5704425,7.19874304 25.2635841,4.4470393 24.0828319,2.41317132 C22.5370354,-0.25164354 18.9058407,0.948091267 17.4655752,3.02540368 C16.9611504,3.7525967 16.5343805,4.87881016 16.4407965,5.96826293 C15.5706637,4.99644432 14.630177,4.07742741 13.6704425,3.24864124 C12.8706637,2.55954565 11.6129204,2.04623293 10.9286283,3.20519681 C10.200531,4.43968717 11.9626991,5.70759632 12.759823,6.40939105" id="Fill-19" fill="#4A4A4A"></path>
                    <g id="Group-23" transform="translate(9.955752, 7.943314)">
                        <mask id="mask-6" fill="white">
                            <use xlink:href="#path-5"></use>
                        </mask>
                        <g id="Clip-22"></g>
                        <path d="M1.73064159,5.41805586 C1.84347345,5.03774995 2.58816372,4.52711074 2.8755531,4.26176549 C3.40984513,3.7671673 3.97466814,3.30799303 4.56537611,2.88624781 C5.13550885,2.48054362 5.7494469,2.14568727 6.35674779,1.79946854 C6.33949115,1.83957109 6.32356195,1.87700015 6.30896018,1.91643433 C5.77334071,2.47385986 5.23705752,3.02994864 4.68285398,3.56932802 C4.19303097,4.04387493 3.69524336,4.50973296 3.18418142,4.96222347 C2.93064159,5.18612941 1.38882743,6.57367786 1.73064159,5.41805586 M0.584402655,6.27625057 C1.25873894,7.44056145 2.52112832,6.93727437 3.3255531,6.25419416 C4.29126106,5.43409689 5.23971239,4.52243211 6.11780973,3.55930238 C6.20276549,4.64875516 6.62090708,5.77764212 7.11869469,6.50951377 C8.54236726,8.59885695 12.1636062,9.8280003 13.731969,7.17588458 C14.9279867,5.15204224 13.2574115,2.38630261 10.8474558,2.84614525 C10.0330752,3.00254522 8.99303097,3.85672967 9.7244469,4.714256 C10.2886062,5.37594818 11.3253319,5.16875164 11.636615,4.40412957 C11.7142699,4.2143108 11.5808628,4.00845101 11.3970133,3.88747497 C11.5914823,3.85539292 11.7759956,3.82665276 11.8496681,3.83601002 C12.9587389,3.95965957 13.2879425,5.12998583 12.9746681,6.04432412 C12.4768805,7.49603665 10.8242257,8.01001775 9.46095133,7.50205204 C7.64900442,6.82632396 6.44103982,4.06927322 7.23086283,2.25730605 C7.48174779,1.94450612 7.72599558,1.62769592 7.95763274,1.30687547 C8.06183628,1.22600198 8.16670354,1.14379174 8.28816372,1.07428064 C8.59612832,0.900502901 8.16338496,0.441997008 7.91183628,0.50415597 C7.87267699,0.512844857 7.84214602,0.530222631 7.80497788,0.540916646 C7.70608407,0.343077369 7.46050885,0.17665176 7.26338496,0.220764572 C5.47798673,0.622458511 3.80409292,1.90574031 2.44081858,3.08742897 C1.63772124,3.78320832 -0.135066372,5.03574483 0.584402655,6.27625057" id="Fill-21" fill="#4A4A4A" mask="url(#mask-6)"></path>
                    </g>
                </g>
                <g id="Page-1" transform="translate(30.000000, 68.000000)" fill="#D5B480">
                    <polygon id="Fill-1" points="6.5673 0.0001 5.0163 4.7721 0.0003 4.7721 4.0593 7.7191 2.5073 12.4911 6.5673 9.5431 10.6263 12.4911 9.0763 7.7191 13.1343 4.7721 8.1173 4.7721"></polygon>
                    <polygon id="Fill-2" points="25.8192 0.0001 24.2682 4.7721 19.2522 4.7721 23.3102 7.7191 21.7592 12.4911 25.8192 9.5431 29.8782 12.4911 28.3282 7.7191 32.3852 4.7721 27.3682 4.7721"></polygon>
                    <polygon id="Fill-3" points="45.0711 0.0001 43.5201 4.7721 38.5041 4.7721 42.5631 7.7191 41.0121 12.4911 45.0711 9.5431 49.1291 12.4911 47.5791 7.7191 51.6371 4.7721 46.6211 4.7721"></polygon>
                    <polygon id="Fill-4" points="64.323 0.0001 62.774 4.7721 57.756 4.7721 61.815 7.7191 60.265 12.4911 64.323 9.5431 68.382 12.4911 66.831 7.7191 70.89 4.7721 65.874 4.7721"></polygon>
                    <polygon id="Fill-5" points="83.5749 0.0001 82.0249 4.7721 77.0089 4.7721 81.0669 7.7191 79.5169 12.4911 83.5749 9.5431 87.6329 12.4911 86.0819 7.7191 90.1429 4.7721 85.1259 4.7721"></polygon>
                </g>
            </g>
        </g>
    </g>
</svg>